<?xml version="1.0" encoding="UTF-8" standalone="no"?>
<!-- Created with Inkscape (http://www.inkscape.org/) -->

<svg
   xmlns:dc="http://purl.org/dc/elements/1.1/"
   xmlns:cc="http://creativecommons.org/ns#"
   xmlns:rdf="http://www.w3.org/1999/02/22-rdf-syntax-ns#"
   xmlns:svg="http://www.w3.org/2000/svg"
   xmlns="http://www.w3.org/2000/svg"
   xmlns:sodipodi="http://sodipodi.sourceforge.net/DTD/sodipodi-0.dtd"
   xmlns:inkscape="http://www.inkscape.org/namespaces/inkscape"
   width="2048"
   height="2048"
   viewBox="0 0 541.86667 541.86667"
   version="1.1"
   id="svg8"
   inkscape:export-filename="D:\School\Colegio Dante Alighieri\2ª Série B\STEAM-S\Projeto Interdisciplinar\logozap.png"
   inkscape:export-xdpi="96"
   inkscape:export-ydpi="96"
   sodipodi:docname="favicon.svg"
   inkscape:version="0.92.4 (5da689c313, 2019-01-14)">
  <defs
     id="defs2" />
  <sodipodi:namedview
     id="base"
     pagecolor="#fffffd"
     bordercolor="#666666"
     borderopacity="1.0"
     inkscape:pageopacity="0"
     inkscape:pageshadow="2"
     inkscape:zoom="0.35"
     inkscape:cx="884.28572"
     inkscape:cy="1002.8571"
     inkscape:document-units="mm"
     inkscape:current-layer="layer1"
     showgrid="false"
     units="px"
     inkscape:pagecheckerboard="false"
     inkscape:window-width="1920"
     inkscape:window-height="1017"
     inkscape:window-x="-8"
     inkscape:window-y="-8"
     inkscape:window-maximized="1" />
  <metadata
     id="metadata5">
    <rdf:RDF>
      <cc:Work
         rdf:about="">
        <dc:format>image/svg+xml</dc:format>
        <dc:type
           rdf:resource="http://purl.org/dc/dcmitype/StillImage" />
        <dc:title></dc:title>
      </cc:Work>
    </rdf:RDF>
  </metadata>
  <g
     inkscape:label="Layer 1"
     inkscape:groupmode="layer"
     id="layer1"
     transform="translate(0,244.8667)">
    <g
       aria-label="Elas"
       style="font-style:normal;font-variant:normal;font-weight:normal;font-stretch:normal;font-size:230.64886475px;line-height:1.25;font-family:'Great Vibes';-inkscape-font-specification:'Great Vibes';letter-spacing:0px;word-spacing:0px;fill:#ffffff;fill-opacity:1;stroke:none;stroke-width:5.76742697;stroke-miterlimit:4;stroke-dasharray:none;stroke-opacity:1"
       id="text817">
      <path
         d="m 185.13746,-102.74663 -24.67943,-0.23065 q -30.44565,0 -47.51366,14.761531 -20.066456,17.068016 -20.066456,39.671604 0,10.609848 4.843626,19.605154 5.07428,8.764657 17.75996,14.530878 12.91634,5.766222 34.59733,5.766222 21.91164,0 46.12978,-9.225955 24.21813,-9.225954 40.82484,-22.142291 18.91321,-14.761527 18.91321,-25.832672 0,-5.304924 -5.53557,-6.458169 -5.53557,-1.383893 -5.76622,-2.998435 -0.4613,-2.07584 3.45973,-1.845191 3.92103,0.230649 6.45817,1.614542 10.3792,5.535573 10.3792,14.30023 0,12.916336 -17.99061,26.985917 -17.75997,14.069581 -44.97653,22.37294 -27.21657,8.303359 -50.9734,8.303359 -23.75684,0 -38.51836,-4.6129773 -26.063324,-8.0727107 -33.905386,-29.7537037 -2.075839,-5.535573 -2.075839,-10.609848 0,-5.074275 1.84519,-12.455038 1.845191,-7.611413 8.30336,-17.298665 6.458168,-9.687252 18.682555,-17.990612 12.22439,-8.30336 26.06332,-12.22439 14.06959,-4.15168 25.14073,-4.61298 -11.53244,-4.15168 -19.60515,-11.53244 -8.07271,-7.38076 -8.07271,-15.91477 0,-0.69195 0,-1.38389 1.61454,-18.68256 20.98904,-33.44409 19.37451,-14.99218 40.5942,-20.52775 21.2197,-5.76622 36.67317,-5.76622 4.84363,0 9.45661,0.4613 19.14385,2.30649 27.44721,9.68725 8.30336,7.15011 8.30336,14.53088 0,10.3792 -11.99374,20.06645 -11.76309,9.4566 -28.60046,13.14698 -4.15168,0.9226 -6.91947,0.9226 -2.53713,0 -2.30648,-1.38389 0.92259,-2.76779 7.84206,-3.45974 6.91946,-0.92259 13.37763,-5.53557 12.91634,-9.4566 14.76153,-24.44878 0,-0.69195 0,-1.38389 0,-5.76622 -5.53557,-10.60985 -6.91947,-6.45817 -23.29554,-6.45817 -16.37607,0 -33.90538,5.30493 -17.52932,5.07427 -32.29084,17.06801 -17.52932,14.30023 -17.52932,31.1376 0,6.68882 3.92103,12.22439 4.15168,5.53557 11.7631,8.30336 7.84206,2.53714 15.68412,4.38233 17.75996,3.69038 17.75996,9.68725 0,5.30492 -9.9179,5.30492 z"
         style="stroke:none;stroke-width:5.76742697;stroke-miterlimit:4;stroke-dasharray:none;stroke-opacity:1;fill:#ffffff"
         id="path4574" />
      <path
         d="m 285.34358,-60.768534 q -0.23065,0.922595 -2.07584,6.458168 -1.84519,5.304924 -3.22908,10.379199 -1.15325,4.843626 -1.15325,9.917901 0,4.843626 2.30649,9.225954 2.30649,4.15168 7.38077,4.15168 8.30336,0 16.14542,-11.071145 7.84206,-11.301795 16.60672,-28.60046 1.84519,-3.229084 3.45973,-2.537137 1.15324,0.922595 0.4613,2.537137 -0.69195,1.383893 -2.99844,6.458169 -2.07584,4.843626 -3.22908,6.919465 -0.9226,1.845191 -3.69038,6.919466 -2.53714,4.843627 -4.61298,7.380764 -1.84519,2.306489 -5.30493,6.227519 -3.22908,3.690382 -6.22752,5.535573 -8.07271,5.074275 -15.22282,5.074275 -7.15012,0 -11.07115,-2.998435 -3.92103,-3.229084 -4.84362,-6.688817 -0.69195,-3.690382 -0.69195,-6.458168 0,-2.767787 0.23065,-7.150115 0.69195,-7.380764 2.76779,-14.30023 2.30649,-6.919466 2.53713,-7.842061 5.30493,-19.143856 14.99218,-41.747448 9.9179,-22.60359 16.60672,-33.90538 6.91946,-11.53244 10.8405,-15.68412 7.84206,-8.30336 15.45347,-8.30336 5.30492,0 7.15011,7.61141 0.23065,1.38389 0.23065,3.45973 0,7.84207 -5.53557,19.83581 -19.8358,44.053929 -47.28302,69.194656 z m 1.84519,-7.380764 q 11.7631,-11.993741 23.29554,-30.215001 11.53244,-18.221261 16.83737,-30.906951 5.53557,-12.91633 5.53557,-17.52931 0,-4.61298 -1.61454,-4.61298 -2.30649,0 -8.76466,9.22596 -6.45817,8.9953 -17.52931,32.75214 -10.8405,23.526179 -17.75997,41.286142 z"
         style="stroke:none;stroke-width:5.76742697;stroke-miterlimit:4;stroke-dasharray:none;stroke-opacity:1;fill:#ffffff"
         id="path4576" />
      <path
         d="m 391.87813,-78.759146 q -4.15168,4.15168 -11.76309,18.913207 -7.61141,14.530879 -9.22595,21.911642 -1.3839,7.150115 -1.3839,11.763092 0,4.382329 3.45973,4.382329 4.38233,0 10.8405,-8.072711 9.4566,-11.763092 18.68256,-30.676299 0.9226,-2.075839 2.07584,-2.306488 1.84519,-0.691947 1.84519,1.383893 0,1.153244 -0.69195,2.767786 -21.21969,42.900689 -35.75057,42.900689 -6.68882,0 -10.8405,-6.458168 -2.07584,-3.459733 -2.07584,-9.225955 0,-5.766221 2.30649,-14.06958 -18.45191,29.753703 -31.82954,29.753703 -3.69038,0 -6.68882,-2.306488 -6.91946,-4.843627 -6.91946,-16.606719 0,-22.603588 19.60515,-45.899124 11.07114,-12.916336 27.21657,-16.837367 4.38232,-1.153244 8.30335,-1.153244 10.60985,0 17.99062,7.380763 2.30648,2.537138 1.38389,4.843627 -0.9226,2.306488 -3.92103,1.845191 -2.53714,-8.30336 -11.07115,-8.30336 -9.9179,0 -24.44878,15.684123 -8.30336,9.225955 -15.45347,21.680993 -8.99531,14.992177 -8.99531,23.987482 0,8.995306 5.76622,8.995306 13.83894,0 36.21188,-42.439391 4.38233,-8.534008 7.38076,-11.532443 2.99844,-3.229084 7.61141,-3.229084 0.9226,0 4.61298,0.691946 3.92103,0.691947 5.76622,0.230649 z"
         style="stroke:none;stroke-width:5.76742697;stroke-miterlimit:4;stroke-dasharray:none;stroke-opacity:1;fill:#ffffff"
         id="path4578" />
      <path
         d="m 422.00304,-20.635632 q 2.99843,0.461298 4.15168,0.461298 9.22595,0 18.22126,-10.840497 4.84363,-5.99687 17.29866,-30.215001 0.4613,-1.153244 1.61455,-1.153244 2.07584,-0.230649 2.07584,1.614542 0,0.461297 -1.15325,2.767786 -0.92259,2.07584 -1.84519,4.382328 -0.9226,2.07584 -2.99843,6.22752 -2.07584,4.151679 -3.69039,6.688817 -1.38389,2.537137 -3.69038,6.227519 -2.30649,3.690382 -4.61298,5.766222 l -4.84362,5.074275 q -3.92103,3.921031 -9.22596,5.535573 -8.534,2.767786 -16.60671,0.461297 -5.30493,2.306489 -9.45661,2.306489 -16.37607,0 -19.8358,-12.916336 -0.69195,-2.998436 -0.69195,-7.150115 0,-4.382329 2.76779,-8.303359 2.99843,-3.921031 6.22752,-4.15168 11.76309,-22.37294 20.06645,-40.363551 9.22595,-19.605151 21.45034,-19.605151 3.22909,0 6.22752,1.61454 3.22909,1.38389 2.30649,3.22908 -0.69194,1.84519 -3.22908,0.69195 -2.53714,-1.15324 -4.38233,-1.15324 -1.84519,0 -3.22908,0.69194 -7.84207,3.690384 -7.84207,15.914774 0,6.458168 1.8452,10.609848 1.84519,4.151679 4.15167,8.995305 5.30493,11.993741 5.30493,19.605154 0,7.611412 -4.84363,14.992176 -4.84362,7.380764 -11.53244,11.993741 z m -7.84206,-1.614542 q 10.14855,-7.842061 10.14855,-25.371375 0,-7.150115 -1.61454,-19.605154 -1.61455,-12.455038 -1.61455,-16.837367 0,-4.382328 0.23065,-5.99687 -17.52931,35.058627 -21.68099,42.67004 4.84363,0 4.84363,6.919466 0,13.608283 9.68725,18.22126 z m -17.29867,-6.227519 q 0,1.383893 0.23065,2.998435 1.84519,6.227519 8.53401,6.227519 2.76779,0 4.61298,-0.922595 -8.53401,-5.304924 -9.22596,-17.298665 -4.15168,4.151679 -4.15168,8.995306 z"
         style="stroke:none;stroke-width:5.76742697;stroke-miterlimit:4;stroke-dasharray:none;stroke-opacity:1;fill:#ffffff"
         id="path4580" />
    </g>
    <g
       aria-label="na"
       style="font-style:normal;font-variant:normal;font-weight:normal;font-stretch:normal;font-size:73.29579163px;line-height:1.25;font-family:'Great Vibes';-inkscape-font-specification:'Great Vibes';letter-spacing:0px;word-spacing:0px;fill:#ffffff;fill-opacity:1;stroke:none;stroke-width:1.83239484"
       id="text4625">
      <path
         d="m 240.73525,19.274213 q 0.43977,-1.246029 1.31932,-1.832395 0.95285,-0.586366 1.83239,-0.439775 0.95285,0.0733 1.68581,0.806254 0.80625,0.732958 1.02614,2.052282 l -0.29318,3.738085 q 1.90569,-1.978986 4.47104,-3.225014 2.56535,-1.319325 5.2773,-1.246029 2.78524,0.0733 5.57048,1.759099 2.78524,1.685803 5.204,5.57048 1.31932,2.125578 1.6858,5.790368 0.36648,3.664789 0.21989,7.769354 -0.14659,4.031268 -0.51307,7.989241 -0.36648,3.957973 -0.43978,6.596621 -0.29318,1.465916 -1.24603,2.125578 -0.95284,0.732958 -1.97898,0.586366 -1.02614,-0.0733 -1.8324,-0.952845 -0.80625,-0.806254 -0.80625,-2.345465 0.0733,-1.685803 0.36648,-4.837522 0.29318,-3.151719 0.36648,-6.669917 0.14659,-3.591494 -0.21989,-7.109692 -0.29318,-3.518198 -1.46592,-6.010255 -1.17273,-2.492057 -3.4449,-3.444902 -2.27217,-1.026141 -6.08355,0.51307 -1.02614,0.366479 -1.61251,0.87955 -0.51307,0.439774 -0.95284,0.952845 -0.36648,0.513071 -0.87955,1.099437 -0.43978,0.51307 -1.17273,1.172733 -0.36648,3.078423 0,6.156846 0.43977,3.078423 0.80625,6.230142 0.43977,3.078424 0.51307,6.156847 0.14659,3.078423 -0.73296,6.083551 -1.02614,1.759099 -2.56535,1.832394 -1.53921,0.146592 -2.78524,-1.465916 -0.51307,-1.465915 -0.80625,-2.711944 -0.21989,-1.319324 -0.0733,-2.858536 -0.0733,-1.246028 -0.0733,-2.931831 0,-1.759099 -0.0733,-3.591494 0,-1.905691 -0.0733,-3.591494 0,-1.759099 -0.14659,-3.005127 -0.21989,-2.638649 -0.29318,-4.690931 -0.0733,-2.125578 -0.0733,-4.104564 0,-1.978987 0.0733,-4.031269 0.0733,-2.125578 0.21989,-4.764226 z"
         style="font-style:normal;font-variant:normal;font-weight:normal;font-stretch:normal;font-family:Halogen;-inkscape-font-specification:Halogen;stroke-width:1.83239484;fill:#ffffff"
         id="path4569" />
      <path
         d="m 280.07332,20.88672 q 3.29832,-2.492057 6.30344,-2.638648 3.00513,-0.219888 6.01026,1.099436 1.46591,0.586367 2.85853,1.465916 1.46592,0.87955 2.27217,2.198874 2.49206,4.031269 3.22502,7.402875 0.80625,3.298311 0.65966,6.596621 -0.0733,3.225015 -0.73296,6.743213 -0.65966,3.518198 -0.95284,7.915946 -0.29319,1.465915 -1.24603,2.198873 -0.95285,0.659662 -1.97899,0.513071 -1.02614,-0.0733 -1.83239,-0.87955 -0.80626,-0.879549 -0.80626,-2.418761 0,-0.366479 0,-0.806254 0.0733,-0.439774 0.1466,-0.806253 -0.87955,0.732958 -2.19888,1.612507 -1.24603,0.806254 -2.71194,1.539212 -1.39262,0.659662 -2.85854,1.099437 -1.46591,0.439774 -2.71194,0.366479 -3.44491,-0.366479 -5.57048,-2.198874 -2.05229,-1.905691 -2.71195,-4.397748 -0.65966,-2.565352 0.14659,-5.277297 0.87955,-2.78524 3.29831,-4.984113 1.7591,-1.612508 3.5915,-2.418762 1.90569,-0.879549 3.95797,-1.319324 2.05228,-0.439775 4.10457,-0.659662 2.12557,-0.219887 4.32445,-0.439775 0.0733,-1.026141 0.0733,-1.246028 0.0733,-0.293183 0,-0.366479 0,-0.146592 -0.14659,-0.293183 -0.0733,-0.219888 -0.29318,-1.099437 -0.21989,-0.732958 -0.58637,-1.39262 -0.29318,-0.732958 -0.87955,-1.319324 -0.0733,-0.0733 -0.73296,-0.659663 -0.58636,-0.659662 -1.6125,-1.319324 -0.95285,-0.659662 -2.27217,-1.099437 -1.31933,-0.439774 -2.71195,-0.219887 -1.53921,0.219887 -2.63865,1.319324 -1.02614,1.026141 -1.83239,2.198874 -0.80625,1.172733 -1.61251,2.125578 -0.73296,0.879549 -1.6125,0.806254 -1.31933,-0.0733 -1.7591,-1.026141 -0.36648,-0.952846 0,-2.27217 0.36648,-1.319324 1.39262,-2.78524 1.02614,-1.539212 2.63864,-2.858536 z m 13.26654,20.962596 q 0.14659,-0.879549 0.29319,-1.759099 0.14659,-0.879549 0.29318,-1.759099 -1.6858,0.146592 -3.37161,0.366479 -1.6125,0.146592 -3.29831,0.586367 -1.24603,0.366479 -2.49205,1.026141 -1.17274,0.586366 -2.19888,1.39262 -1.61251,1.246028 -1.83239,2.711944 -0.14659,1.465916 0.65966,2.492057 0.80625,0.952845 2.34546,1.172733 1.53922,0.219887 3.37161,-1.026141 0.73296,-0.513071 1.17273,-0.732958 0.51307,-0.293183 0.87955,-0.513071 0.36648,-0.293183 0.73296,-0.586366 0.43978,-0.366479 1.09944,-0.952845 0.14659,-0.0733 0.43977,-0.439775 0.36648,-0.366479 0.73296,-0.806254 0.36648,-0.439775 0.65966,-0.732958 0.36648,-0.366479 0.51307,-0.439775 z"
         style="font-style:normal;font-variant:normal;font-weight:normal;font-stretch:normal;font-family:Halogen;-inkscape-font-specification:Halogen;stroke-width:1.83239484;fill:#ffffff"
         id="path4571" />
    </g>
    <g
       aria-label="Literatura"
       style="font-style:normal;font-variant:normal;font-weight:normal;font-stretch:normal;font-size:161.15930176px;line-height:1.25;font-family:'Great Vibes';-inkscape-font-specification:'Great Vibes';letter-spacing:0px;word-spacing:0px;fill:#ffffff;fill-opacity:1;stroke:none;stroke-width:4.02898264"
       id="text4641">
      <path
         d="m 169.41812,83.160563 q 0,14.020859 -9.18608,29.330997 -9.02492,15.31013 -25.14085,26.75244 -15.95477,11.28115 -33.03766,14.18202 -9.830714,19.82259 -14.182015,27.7194 l -3.384345,5.47941 q 31.90954,7.89681 52.86025,24.01274 10.63651,8.21912 14.34318,20.14491 1.93391,6.12406 1.93391,10.47536 0,4.3513 -1.77275,7.25217 -1.6116,3.06202 -3.86783,4.19014 -2.25623,1.12811 -3.22318,1.12811 -0.96696,0 -0.96696,-0.80579 0,-0.8058 1.77276,-4.83478 1.93391,-3.86783 1.93391,-9.18608 0,-5.31826 -2.25623,-11.76463 -2.25623,-6.44637 -8.38029,-11.92579 -6.12405,-5.31826 -17.08288,-9.99188 -10.79768,-4.83478 -18.85564,-6.76869 -7.896807,-2.09507 -21.273029,-4.67362 -13.698541,19.17796 -28.525197,26.26897 -8.863761,4.3513 -15.793611,4.3513 -6.768691,0 -12.086948,-2.73971 -9.18608,-4.51246 -9.18608,-13.69854 0,-9.18608 12.086947,-16.11593 13.698541,-8.05796 37.06664,-8.05796 8.380284,0 15.148974,1.28927 7.252169,-11.28115 16.921727,-31.10374 -0.966956,0 -1.772752,0 -10.153036,0 -18.855639,-3.38435 -8.702602,-3.38435 -13.8597,-9.18608 -6.76869,-7.57449 -6.76869,-17.08289 0,-4.99593 2.417389,-10.79767 2.578549,-5.80173 11.119992,-11.76463 8.702602,-5.962892 21.917665,-9.024919 2.095071,-0.483478 3.545505,-0.483478 1.450433,0 1.772752,0.805796 0.322319,0.805797 -1.289274,1.450434 -1.611593,0.644637 -3.706664,0.966956 -6.92985,0.805796 -12.892744,4.673621 -10.314196,6.60753 -14.343178,20.30607 -0.966956,3.22319 -0.966956,6.28521 0,2.90087 1.128115,7.09101 1.128115,4.19014 4.834779,8.70261 3.706664,4.3513 9.991877,6.12405 6.446372,1.77275 11.119992,1.77275 4.834779,0 8.863761,-0.48348 l 13.698537,-34.48809 q 14.18202,-36.422 33.84346,-44.802283 5.15709,-2.095071 9.99187,-2.095071 4.99594,0 9.34724,3.223186 4.51246,3.062026 4.83478,7.574487 0.16116,1.933911 0.16116,3.706664 z m -6.76869,0.161159 q 0,-6.124053 -5.64057,-6.124053 -8.21913,0 -19.98376,14.343177 -9.18608,11.442314 -17.72752,27.719404 -8.38028,16.11593 -14.98782,29.81447 22.40115,-4.99594 40.28983,-24.49622 18.04984,-19.66143 18.04984,-41.256778 z M 73.367178,192.91005 q -7.896806,-1.77276 -16.27709,-1.77276 -8.380283,0 -17.244045,2.41739 -18.53332,4.83478 -21.756506,13.69855 -0.644637,1.61159 -0.644637,3.06202 0,4.19014 4.512461,6.76869 4.673619,2.73971 10.153036,2.73971 7.574487,0 16.438248,-4.19014 13.376222,-6.44637 24.818533,-22.72346 z"
         style="stroke-width:4.02898264;fill:#ffffff"
         id="path4548" />
      <path
         d="m 161.18137,142.95066 q -2.25623,1.93392 -4.99594,1.93392 -2.73971,0 -4.3513,-1.93392 -1.61159,-1.93391 -1.28927,-4.67362 0.48347,-2.7397 2.7397,-4.67362 2.25623,-1.93391 4.99594,-1.93391 2.73971,0 4.3513,1.93391 1.77276,1.93392 1.28928,4.67362 -0.48348,2.73971 -2.73971,4.67362 z m -15.79361,59.14547 q 3.06202,0 6.44637,-3.06203 5.96289,-5.96289 15.14897,-24.33505 1.12812,-2.41739 2.25623,-1.45044 0.32232,0.32232 0.32232,1.12812 0,0.64463 -1.28927,3.5455 -1.28928,2.73971 -2.41739,4.99594 -0.96696,2.25623 -4.02898,7.41333 -2.90087,4.99594 -5.31826,7.73564 -6.60753,7.57449 -12.57043,7.57449 -5.80173,0 -8.38028,-3.5455 -2.57855,-3.54551 -2.57855,-7.89681 0,-4.3513 2.09507,-9.5084 l 10.3142,-26.26896 q 0.32232,-0.96696 0.32232,-2.57855 0,-1.6116 -1.93392,-4.19014 l 8.86377,-0.16116 q 3.70666,0 4.3513,1.45043 0.64463,1.28927 -0.96696,4.19014 l -12.89274,30.13679 q -2.73971,5.9629 -2.73971,10.15304 0,4.67362 4.99594,4.67362 z"
         style="stroke-width:4.02898264;fill:#ffffff"
         id="path4550" />
      <path
         d="m 163.08758,192.74889 q 0,-13.37622 12.89274,-44.80229 h -8.38028 q -0.8058,0 -1.12812,-0.80579 -0.16116,-0.96696 0.16116,-1.77276 0.48348,-0.96695 1.28928,-0.96695 h 9.66955 q 5.80174,-12.73159 10.79768,-21.27303 4.99594,-8.54144 9.18608,-11.44231 4.19014,-3.06203 5.96289,-3.06203 1.93391,0 2.73971,0.32232 3.70666,1.77275 3.70666,7.41333 0,5.47942 -3.70666,13.37622 -3.70666,7.89681 -7.25217,14.6655 h 7.73565 q 0.80579,0 0.96695,0.96695 0.32232,0.8058 -0.16116,1.77276 -0.32231,0.80579 -1.12811,0.80579 h -9.34724 q -8.86376,14.98782 -21.43419,26.59129 l -3.70666,16.43825 q -0.48348,2.09507 -0.48348,4.19014 0,1.93391 1.12812,4.02898 1.12811,2.09507 3.5455,2.09507 2.73971,0 6.12405,-1.93391 7.73565,-5.80174 17.08289,-24.33506 0.64464,-1.45043 1.45043,-1.77275 0.96696,-0.32232 1.12812,0.48348 0.16116,0.64464 -0.48348,2.25623 -5.31826,11.11999 -8.38028,15.79361 -8.7026,14.02086 -18.53332,14.02086 -4.99594,0 -8.21913,-3.70666 -3.22318,-3.70667 -3.22318,-9.34724 z M 195.4806,144.4011 q 10.63651,-19.0168 10.63651,-26.43013 0,-3.22318 -1.12811,-3.22318 -1.77276,0 -5.47942,5.15709 -3.5455,5.1571 -12.08695,24.49622 z m -2.09507,3.5455 h -7.57449 q -1.93391,4.51246 -8.7026,21.43419 8.7026,-9.02492 16.27709,-21.43419 z"
         style="stroke-width:4.02898264;fill:#ffffff"
         id="path4552" />
      <path
         d="m 206.31353,180.8231 q -2.25623,5.47942 -2.25623,12.24811 0,4.51246 1.93391,7.25217 2.09507,2.57854 5.80173,2.57854 14.6655,0 26.59129,-27.55824 1.12811,-2.57855 2.73971,-2.25623 0.64463,0.16116 0.64463,0.8058 0,0.64464 -3.70666,8.54144 -3.54551,7.73565 -7.25217,12.57043 -8.21912,11.28115 -20.30607,11.28115 -6.44637,0 -10.95883,-4.19014 -4.51246,-4.19014 -4.51246,-11.44231 0,-7.25217 3.38434,-15.31014 3.54551,-8.21912 9.5084,-15.14897 5.96289,-7.09101 13.69854,-10.3142 3.70666,-1.61159 7.09101,-1.61159 3.38434,0 6.28521,1.93391 2.73971,2.25623 2.73971,4.99594 0,9.66956 -11.60347,18.53332 -3.5455,2.73971 -9.99188,4.99594 -6.44637,2.09507 -9.83071,2.09507 z m 27.07476,-25.78549 q 0,-3.22318 -2.57855,-3.22318 -4.51246,0 -13.69854,11.11999 -5.47942,6.76869 -9.66956,15.14897 2.73971,0 7.89681,-1.93391 5.31825,-1.93391 9.18608,-5.1571 8.86376,-7.57448 8.86376,-15.95477 z"
         style="stroke-width:4.02898264;fill:#ffffff"
         id="path4554" />
      <path
         d="m 260.47816,141.01675 q 0,7.25217 -9.18608,13.69854 3.22318,0.16116 8.54144,0.16116 5.47942,0 13.69854,-0.80579 0.32232,0.48347 0.32232,2.57854 0,2.09508 -1.93391,6.28522 -1.93391,4.02898 -3.54551,7.09101 -1.45043,2.90086 -2.90086,5.64057 -1.28928,2.57855 -3.06203,6.44637 -1.61159,3.86783 -2.73971,7.09101 -4.02898,12.24811 1.28928,12.24811 6.76869,0 19.98375,-26.9136 1.12811,-2.09507 1.77275,-1.6116 0.8058,0.48348 0.8058,1.28928 0,0.64464 -2.09507,4.99594 -2.09507,4.19014 -4.51246,8.7026 -2.41739,4.51246 -7.57449,10.47535 -6.12405,7.41333 -11.76463,7.41333 -6.28521,0 -8.7026,-7.57449 -0.48348,-1.45043 -0.48348,-4.3513 0,-2.90086 1.77275,-7.73564 1.93391,-4.83478 5.9629,-11.76463 4.02898,-6.92985 4.51246,-8.05797 0.48347,-1.28927 0.48347,-2.41739 0,-4.99594 -12.89274,-5.31825 l -1.93391,5.15709 q -10.15304,26.59129 -19.50028,35.61621 -1.61159,1.45043 -1.61159,-0.96696 0,-0.48347 0.32232,-1.12811 9.02492,-11.92579 15.63245,-28.20288 6.60753,-16.27709 9.18608,-30.94259 0.96696,-4.99593 4.51246,-4.99593 3.54551,0 5.1571,4.51246 0.48348,1.45043 0.48348,3.38434 z"
         style="stroke-width:4.02898264;fill:#ffffff"
         id="path4556" />
      <path
         d="m 329.73889,161.96746 q -2.90087,2.90087 -8.21913,13.21506 -5.31826,10.15304 -6.44637,15.31014 -0.96696,4.99594 -0.96696,8.21912 0,3.06203 2.41739,3.06203 3.06203,0 7.57449,-5.64058 6.60753,-8.21912 13.0539,-21.43418 0.64464,-1.45044 1.45044,-1.6116 1.28927,-0.48347 1.28927,0.96696 0,0.8058 -0.48348,1.93391 -14.82665,29.97563 -24.97969,29.97563 -4.67362,0 -7.57448,-4.51246 -1.45044,-2.41739 -1.45044,-6.44637 0,-4.02898 1.61159,-9.83072 -12.89274,20.78955 -22.23998,20.78955 -2.57855,0 -4.67362,-1.61159 -4.83478,-3.38435 -4.83478,-11.60347 0,-15.79361 13.69854,-32.0707 7.73565,-9.02492 19.0168,-11.76463 3.06203,-0.8058 5.80174,-0.8058 7.41332,0 12.57042,5.1571 1.61159,1.77275 0.96696,3.38434 -0.64464,1.6116 -2.73971,1.28928 -1.77275,-5.80174 -7.73565,-5.80174 -6.92985,0 -17.08288,10.95884 -5.80174,6.44637 -10.79768,15.14897 -6.28521,10.47536 -6.28521,16.76057 0,6.28521 4.02898,6.28521 9.66956,0 25.30201,-29.65331 3.06203,-5.96289 5.1571,-8.05797 2.09507,-2.25623 5.31826,-2.25623 0.64463,0 3.22318,0.48348 2.73971,0.48348 4.02899,0.16116 z"
         style="stroke-width:4.02898264;fill:#ffffff"
         id="path4558" />
      <path
         d="m 333.06028,192.74889 q 0,-13.37622 12.89274,-44.80229 h -8.38028 q -0.8058,0 -1.12811,-0.80579 -0.16116,-0.96696 0.16115,-1.77276 0.48348,-0.96695 1.28928,-0.96695 h 9.66956 q 5.80173,-12.73159 10.79767,-21.27303 4.99594,-8.54144 9.18608,-11.44231 4.19014,-3.06203 5.96289,-3.06203 1.93392,0 2.73971,0.32232 3.70667,1.77275 3.70667,7.41333 0,5.47942 -3.70667,13.37622 -3.70666,7.89681 -7.25217,14.6655 h 7.73565 q 0.8058,0 0.96696,0.96695 0.32231,0.8058 -0.16116,1.77276 -0.32232,0.80579 -1.12812,0.80579 h -9.34724 q -8.86376,14.98782 -21.43418,26.59129 l -3.70667,16.43825 q -0.48348,2.09507 -0.48348,4.19014 0,1.93391 1.12812,4.02898 1.12811,2.09507 3.5455,2.09507 2.73971,0 6.12406,-1.93391 7.73564,-5.80174 17.08288,-24.33506 0.64464,-1.45043 1.45044,-1.77275 0.96695,-0.32232 1.12811,0.48348 0.16116,0.64464 -0.48348,2.25623 -5.31825,11.11999 -8.38028,15.79361 -8.7026,14.02086 -18.53332,14.02086 -4.99594,0 -8.21912,-3.70666 -3.22319,-3.70667 -3.22319,-9.34724 z M 365.4533,144.4011 q 10.63651,-19.0168 10.63651,-26.43013 0,-3.22318 -1.12811,-3.22318 -1.77275,0 -5.47942,5.15709 -3.5455,5.1571 -12.08695,24.49622 z m -2.09507,3.5455 h -7.57449 q -1.93391,4.51246 -8.7026,21.43419 8.7026,-9.02492 16.27709,-21.43419 z"
         style="stroke-width:4.02898264;fill:#ffffff"
         id="path4560" />
      <path
         d="m 363.55464,196.29439 q 0,-6.92985 5.9629,-16.76056 -2.57855,0 -1.45044,-2.57855 l 2.90087,-5.64058 q 5.47942,-10.47535 9.02492,-17.72752 1.6116,-3.38435 6.28522,-3.38435 h 9.83071 q -5.80173,4.19014 -11.76463,16.27709 -5.80173,11.92579 -9.02492,18.85564 -3.22318,6.76869 -3.22318,10.3142 0,3.5455 1.12811,4.99593 1.28928,1.45044 3.38435,1.45044 3.06202,0 8.54144,-6.44637 8.54144,-9.99188 24.01274,-42.06258 1.77275,-3.38435 6.28521,-3.38435 h 8.7026 q -3.5455,2.73971 -5.64057,5.64058 -1.93392,2.90087 -5.47942,10.31419 -9.66956,19.33912 -10.79767,25.62433 -0.48348,2.25623 -0.48348,4.19014 0,5.1571 3.5455,5.47942 8.70261,0 21.43419,-26.9136 0.96696,-2.25623 1.93391,-1.77276 0.96696,0.48348 0.96696,1.28928 0,0.8058 -1.45044,3.70666 -1.45043,2.90087 -2.90086,5.64058 -1.28928,2.73971 -4.19015,7.57449 -2.7397,4.67362 -5.15709,7.41332 -6.28522,7.09101 -12.40927,7.09101 -5.96289,0 -8.21912,-5.31825 -0.96696,-2.41739 -0.96696,-6.12406 0,-3.70666 1.61159,-9.18608 -11.76463,20.62839 -21.7565,20.62839 -8.7026,0 -10.15304,-7.25217 -0.48348,-0.80579 -0.48348,-1.93391 z"
         style="stroke-width:4.02898264;fill:#ffffff"
         id="path4562" />
      <path
         d="m 448.39243,141.01675 q 0,7.25217 -9.18608,13.69854 3.22319,0.16116 8.54145,0.16116 5.47941,0 13.69854,-0.80579 0.32232,0.48347 0.32232,2.57854 0,2.09508 -1.93392,6.28522 -1.93391,4.02898 -3.5455,7.09101 -1.45043,2.90086 -2.90087,5.64057 -1.28927,2.57855 -3.06203,6.44637 -1.61159,3.86783 -2.7397,7.09101 -4.02899,12.24811 1.28927,12.24811 6.76869,0 19.98375,-26.9136 1.12812,-2.09507 1.77276,-1.6116 0.80579,0.48348 0.80579,1.28928 0,0.64464 -2.09507,4.99594 -2.09507,4.19014 -4.51246,8.7026 -2.41739,4.51246 -7.57449,10.47535 -6.12405,7.41333 -11.76462,7.41333 -6.28522,0 -8.70261,-7.57449 -0.48347,-1.45043 -0.48347,-4.3513 0,-2.90086 1.77275,-7.73564 1.93391,-4.83478 5.96289,-11.76463 4.02898,-6.92985 4.51246,-8.05797 0.48348,-1.28927 0.48348,-2.41739 0,-4.99594 -12.89274,-5.31825 l -1.93392,5.15709 q -10.15303,26.59129 -19.50027,35.61621 -1.61159,1.45043 -1.61159,-0.96696 0,-0.48347 0.32231,-1.12811 9.02493,-11.92579 15.63246,-28.20288 6.60753,-16.27709 9.18608,-30.94259 0.96695,-4.99593 4.51246,-4.99593 3.5455,0 5.1571,4.51246 0.48347,1.45043 0.48347,3.38434 z"
         style="stroke-width:4.02898264;fill:#ffffff"
         id="path4564" />
      <path
         d="m 517.65316,161.96746 q -2.90087,2.90087 -8.21912,13.21506 -5.31826,10.15304 -6.44637,15.31014 -0.96696,4.99594 -0.96696,8.21912 0,3.06203 2.41739,3.06203 3.06203,0 7.57449,-5.64058 6.60753,-8.21912 13.0539,-21.43418 0.64464,-1.45044 1.45043,-1.6116 1.28928,-0.48347 1.28928,0.96696 0,0.8058 -0.48348,1.93391 -14.82666,29.97563 -24.97969,29.97563 -4.67362,0 -7.57449,-4.51246 -1.45043,-2.41739 -1.45043,-6.44637 0,-4.02898 1.61159,-9.83072 -12.89274,20.78955 -22.23998,20.78955 -2.57855,0 -4.67362,-1.61159 -4.83478,-3.38435 -4.83478,-11.60347 0,-15.79361 13.69854,-32.0707 7.73565,-9.02492 19.0168,-11.76463 3.06202,-0.8058 5.80173,-0.8058 7.41333,0 12.57043,5.1571 1.61159,1.77275 0.96695,3.38434 -0.64463,1.6116 -2.73971,1.28928 -1.77275,-5.80174 -7.73564,-5.80174 -6.92985,0 -17.08289,10.95884 -5.80173,6.44637 -10.79767,15.14897 -6.28521,10.47536 -6.28521,16.76057 0,6.28521 4.02898,6.28521 9.66956,0 25.30201,-29.65331 3.06203,-5.96289 5.1571,-8.05797 2.09507,-2.25623 5.31825,-2.25623 0.64464,0 3.22319,0.48348 2.73971,0.48348 4.02898,0.16116 z"
         style="stroke-width:4.02898264;fill:#ffffff"
         id="path4566" />
    </g>
    <g
       transform="matrix(3.1776455,0,0,3.1776455,-1641.0124,-643.53253)"
       id="g4649"
       style="stroke:none;fill:#ffffff">
      <path
         style="fill:#ffffff;fill-opacity:1;stroke:none;stroke-width:0.40839899;stroke-miterlimit:4;stroke-dasharray:none;stroke-opacity:1"
         d="m 533.99902,211.68016 h 45.03751 c 0.51072,0 0.92187,0.41116 0.92187,0.92188 v 0.41604 c 0,0.51072 -0.41115,0.92187 -0.92187,0.92187 h -45.03751 c -0.51072,0 -0.92187,-0.41115 -0.92187,-0.92187 v -0.41604 c 0,-0.51072 0.41115,-0.92188 0.92187,-0.92188 z"
         id="rect4643" />
      <path
         style="fill:#ffffff;fill-opacity:1;stroke:none;stroke-width:0.40839899;stroke-miterlimit:4;stroke-dasharray:none;stroke-opacity:1"
         d="m 624.33612,211.68016 h 45.03751 c 0.51072,0 0.92187,0.41116 0.92187,0.92188 v 0.41604 c 0,0.51072 -0.41115,0.92187 -0.92187,0.92187 h -45.03751 c -0.51072,0 -0.92187,-0.41115 -0.92187,-0.92187 v -0.41604 c 0,-0.51072 0.41115,-0.92188 0.92187,-0.92188 z"
         id="rect4645" />
    </g>
  </g>
</svg>
