<?xml version="1.0" encoding="UTF-8" standalone="no"?>
<!-- Created with Inkscape (http://www.inkscape.org/) -->

<svg
   xmlns:dc="http://purl.org/dc/elements/1.1/"
   xmlns:cc="http://creativecommons.org/ns#"
   xmlns:rdf="http://www.w3.org/1999/02/22-rdf-syntax-ns#"
   xmlns:svg="http://www.w3.org/2000/svg"
   xmlns="http://www.w3.org/2000/svg"
   xmlns:sodipodi="http://sodipodi.sourceforge.net/DTD/sodipodi-0.dtd"
   xmlns:inkscape="http://www.inkscape.org/namespaces/inkscape"
   width="4096"
   height="1024"
   viewBox="0 0 1083.7333 270.93333"
   version="1.1"
   id="svg8"
   inkscape:export-filename="D:\School\Colegio Dante Alighieri\2ª Série B\STEAM-S\Projeto Interdisciplinar\logozap.png"
   inkscape:export-xdpi="96"
   inkscape:export-ydpi="96"
   sodipodi:docname="logo-wide-fix.svg"
   inkscape:version="0.92.4 (5da689c313, 2019-01-14)">
  <defs
     id="defs2" />
  <sodipodi:namedview
     id="base"
     pagecolor="#fffffd"
     bordercolor="#666666"
     borderopacity="1.0"
     inkscape:pageopacity="0"
     inkscape:pageshadow="2"
     inkscape:zoom="0.175"
     inkscape:cx="1798.1692"
     inkscape:cy="905.93629"
     inkscape:document-units="mm"
     inkscape:current-layer="layer1"
     showgrid="false"
     units="px"
     inkscape:pagecheckerboard="false"
     inkscape:window-width="1920"
     inkscape:window-height="1017"
     inkscape:window-x="-8"
     inkscape:window-y="-8"
     inkscape:window-maximized="1" />
  <metadata
     id="metadata5">
    <rdf:RDF>
      <cc:Work
         rdf:about="">
        <dc:format>image/svg+xml</dc:format>
        <dc:type
           rdf:resource="http://purl.org/dc/dcmitype/StillImage" />
        <dc:title></dc:title>
      </cc:Work>
    </rdf:RDF>
  </metadata>
  <g
     inkscape:label="Layer 1"
     inkscape:groupmode="layer"
     id="layer1"
     transform="translate(0,-26.066633)">
    <g
       aria-label="Elas"
       style="font-style:normal;font-variant:normal;font-weight:normal;font-stretch:normal;font-size:230.64886475px;line-height:1.25;font-family:'Great Vibes';-inkscape-font-specification:'Great Vibes';letter-spacing:0px;word-spacing:0px;fill:#000000;fill-opacity:1;stroke:none;stroke-width:5.76742697;stroke-miterlimit:4;stroke-dasharray:none;stroke-opacity:1"
       id="text817">
      <path
         d="m 130.8109,161.41798 -24.67943,-0.23065 q -30.445646,0 -47.513662,14.76152 -20.066451,17.06802 -20.066451,39.67161 0,10.60985 4.843626,19.60515 5.074275,8.76466 17.759963,14.53088 12.916336,5.76622 34.597329,5.76622 21.911645,0 46.129775,-9.22595 24.21813,-9.22596 40.82485,-22.14229 18.9132,-14.76153 18.9132,-25.83268 0,-5.30492 -5.53557,-6.45816 -5.53557,-1.3839 -5.76622,-2.99844 -0.4613,-2.07584 3.45973,-1.84519 3.92103,0.23065 6.45817,1.61454 10.3792,5.53558 10.3792,14.30023 0,12.91634 -17.99061,26.98592 -17.75996,14.06958 -44.97653,22.37294 -27.21657,8.30336 -50.973399,8.30336 -23.756833,0 -38.518361,-4.61298 -26.063321,-8.07271 -33.905383,-29.7537 -2.07584,-5.53558 -2.07584,-10.60985 0,-5.07428 1.845191,-12.45504 1.845191,-7.61141 8.303359,-17.29866 6.458169,-9.68726 18.682558,-17.99062 12.22439,-8.30335 26.063322,-12.22439 14.069581,-4.15167 25.140723,-4.61297 -11.53244,-4.15168 -19.60515,-11.53245 -8.07271,-7.38076 -8.07271,-15.91477 0,-0.69194 0,-1.38389 1.614542,-18.68256 20.989046,-33.444086 19.374504,-14.992176 40.594204,-20.527749 21.21969,-5.766222 36.67317,-5.766222 4.84362,0 9.4566,0.461298 19.14386,2.306489 27.44721,9.687252 8.30336,7.150115 8.30336,14.530879 0,10.379199 -11.99374,20.066448 -11.76309,9.45661 -28.60046,13.14699 -4.15168,0.92259 -6.91946,0.92259 -2.53714,0 -2.30649,-1.38389 0.92259,-2.76779 7.84206,-3.45973 6.91947,-0.9226 13.37763,-5.53557 12.91634,-9.45661 14.76153,-24.448785 0,-0.691946 0,-1.383893 0,-5.766221 -5.53557,-10.609848 -6.91947,-6.458168 -23.29554,-6.458168 -16.37607,0 -33.90538,5.304924 -17.52931,5.074275 -32.29084,17.068016 -17.529314,14.300234 -17.529314,31.137594 0,6.68882 3.92103,12.22439 4.15168,5.53558 11.763094,8.30336 7.84206,2.53714 15.68412,4.38233 17.75996,3.69038 17.75996,9.68725 0,5.30493 -9.9179,5.30493 z"
         style="stroke:none;stroke-width:5.76742697;stroke-miterlimit:4;stroke-dasharray:none;stroke-opacity:1"
         id="path4540" />
      <path
         d="m 231.01703,203.39607 q -0.23065,0.9226 -2.07584,6.45817 -1.84519,5.30492 -3.22909,10.3792 -1.15324,4.84362 -1.15324,9.9179 0,4.84362 2.30649,9.22595 2.30648,4.15168 7.38076,4.15168 8.30336,0 16.14542,-11.07114 7.84206,-11.3018 16.60672,-28.60046 1.84519,-3.22909 3.45973,-2.53714 1.15325,0.9226 0.4613,2.53714 -0.69195,1.38389 -2.99844,6.45817 -2.07584,4.84362 -3.22908,6.91946 -0.9226,1.84519 -3.69038,6.91947 -2.53714,4.84362 -4.61298,7.38076 -1.84519,2.30649 -5.30492,6.22752 -3.22909,3.69038 -6.22752,5.53557 -8.07271,5.07428 -15.22283,5.07428 -7.15011,0 -11.07114,-2.99844 -3.92103,-3.22908 -4.84363,-6.68881 -0.69195,-3.69039 -0.69195,-6.45817 0,-2.76779 0.23065,-7.15012 0.69195,-7.38076 2.76779,-14.30023 2.30649,-6.91946 2.53714,-7.84206 5.30492,-19.14385 14.99217,-41.74744 9.9179,-22.60359 16.60672,-33.90539 6.91947,-11.53244 10.8405,-15.68412 7.84206,-8.30336 15.45347,-8.30336 5.30493,0 7.15012,7.61142 0.23065,1.38389 0.23065,3.45973 0,7.84206 -5.53558,19.8358 -19.8358,44.05393 -47.28301,69.19466 z m 1.84519,-7.38076 q 11.76309,-11.99374 23.29553,-30.21501 11.53245,-18.22126 16.83737,-30.90694 5.53557,-12.91634 5.53557,-17.52932 0,-4.61297 -1.61454,-4.61297 -2.30649,0 -8.76466,9.22595 -6.45817,8.99531 -17.52931,32.75214 -10.8405,23.52618 -17.75996,41.28615 z"
         style="stroke:none;stroke-width:5.76742697;stroke-miterlimit:4;stroke-dasharray:none;stroke-opacity:1"
         id="path4542" />
      <path
         d="m 337.55157,185.40546 q -4.15167,4.15168 -11.76309,18.91321 -7.61141,14.53087 -9.22595,21.91164 -1.3839,7.15011 -1.3839,11.76309 0,4.38233 3.45974,4.38233 4.38233,0 10.84049,-8.07271 9.45661,-11.76309 18.68256,-30.6763 0.9226,-2.07584 2.07584,-2.30649 1.84519,-0.69195 1.84519,1.38389 0,1.15325 -0.69194,2.76779 -21.2197,42.90069 -35.75058,42.90069 -6.68881,0 -10.84049,-6.45817 -2.07584,-3.45973 -2.07584,-9.22595 0,-5.76623 2.30648,-14.06959 -18.4519,29.75371 -31.82954,29.75371 -3.69038,0 -6.68882,-2.30649 -6.91946,-4.84363 -6.91946,-16.60672 0,-22.60359 19.60515,-45.89912 11.07115,-12.91634 27.21657,-16.83737 4.38233,-1.15324 8.30336,-1.15324 10.60984,0 17.99061,7.38076 2.30649,2.53714 1.38389,4.84363 -0.92259,2.30648 -3.92103,1.84519 -2.53714,-8.30336 -11.07114,-8.30336 -9.91791,0 -24.44878,15.68412 -8.30336,9.22595 -15.45348,21.68099 -8.9953,14.99218 -8.9953,23.98749 0,8.9953 5.76622,8.9953 13.83893,0 36.21187,-42.43939 4.38233,-8.53401 7.38076,-11.53244 2.99844,-3.22909 7.61142,-3.22909 0.92259,0 4.61297,0.69195 3.92103,0.69195 5.76622,0.23065 z"
         style="stroke:none;stroke-width:5.76742697;stroke-miterlimit:4;stroke-dasharray:none;stroke-opacity:1"
         id="path4544" />
      <path
         d="m 367.67648,243.52897 q 2.99844,0.4613 4.15168,0.4613 9.22596,0 18.22126,-10.8405 4.84363,-5.99687 17.29867,-30.215 0.46129,-1.15324 1.61454,-1.15324 2.07584,-0.23065 2.07584,1.61454 0,0.4613 -1.15325,2.76779 -0.92259,2.07584 -1.84519,4.38232 -0.92259,2.07584 -2.99843,6.22752 -2.07584,4.15168 -3.69038,6.68882 -1.3839,2.53714 -3.69039,6.22752 -2.30648,3.69038 -4.61297,5.76622 l -4.84363,5.07428 q -3.92103,3.92103 -9.22595,5.53557 -8.53401,2.76779 -16.60672,0.4613 -5.30493,2.30649 -9.45661,2.30649 -16.37606,0 -19.8358,-12.91634 -0.69194,-2.99844 -0.69194,-7.15012 0,-4.38232 2.76778,-8.30335 2.99844,-3.92103 6.22752,-4.15168 11.76309,-22.37294 20.06645,-40.36356 9.22596,-19.60515 21.45035,-19.60515 3.22908,0 6.22752,1.61454 3.22908,1.3839 2.30648,3.22909 -0.69194,1.84519 -3.22908,0.69194 -2.53714,-1.15324 -4.38233,-1.15324 -1.84519,0 -3.22908,0.69195 -7.84206,3.69038 -7.84206,15.91477 0,6.45817 1.84519,10.60985 1.84519,4.15168 4.15168,8.9953 5.30492,11.99374 5.30492,19.60516 0,7.61141 -4.84362,14.99217 -4.84363,7.38076 -11.53245,11.99374 z m -7.84206,-1.61454 q 10.14855,-7.84206 10.14855,-25.37137 0,-7.15012 -1.61454,-19.60516 -1.61454,-12.45504 -1.61454,-16.83737 0,-4.38232 0.23065,-5.99687 -17.52932,35.05863 -21.681,42.67004 4.84363,0 4.84363,6.91947 0,13.60828 9.68725,18.22126 z m -17.29866,-6.22752 q 0,1.38389 0.23064,2.99844 1.8452,6.22752 8.53401,6.22752 2.76779,0 4.61298,-0.9226 -8.53401,-5.30492 -9.22595,-17.29866 -4.15168,4.15167 -4.15168,8.9953 z"
         style="stroke:none;stroke-width:5.76742697;stroke-miterlimit:4;stroke-dasharray:none;stroke-opacity:1"
         id="path4546" />
    </g>
    <g
       aria-label="na"
       style="font-style:normal;font-variant:normal;font-weight:normal;font-stretch:normal;font-size:73.29579163px;line-height:1.25;font-family:'Great Vibes';-inkscape-font-specification:'Great Vibes';letter-spacing:0px;word-spacing:0px;fill:#000000;fill-opacity:1;stroke:none;stroke-width:1.83239484"
       id="text4625">
      <path
         d="m 449.22719,170.10993 q 0.43977,-1.24603 1.31932,-1.8324 0.95285,-0.58636 1.8324,-0.43977 0.95284,0.0733 1.6858,0.80625 0.80625,0.73296 1.02614,2.05229 l -0.29318,3.73808 q 1.90569,-1.97899 4.47104,-3.22501 2.56536,-1.31933 5.2773,-1.24603 2.78524,0.0733 5.57048,1.7591 2.78524,1.6858 5.204,5.57048 1.31933,2.12557 1.6858,5.79036 0.36648,3.66479 0.21989,7.76936 -0.14659,4.03127 -0.51307,7.98924 -0.36648,3.95797 -0.43977,6.59662 -0.29319,1.46592 -1.24603,2.12558 -0.95285,0.73296 -1.97899,0.58636 -1.02614,-0.0733 -1.83239,-0.95284 -0.80626,-0.80625 -0.80626,-2.34547 0.0733,-1.6858 0.36648,-4.83752 0.29318,-3.15172 0.36648,-6.66992 0.14659,-3.59149 -0.21989,-7.10969 -0.29318,-3.51819 -1.46591,-6.01025 -1.17274,-2.49206 -3.4449,-3.4449 -2.27217,-1.02615 -6.08356,0.51307 -1.02614,0.36648 -1.6125,0.87955 -0.51307,0.43977 -0.95285,0.95284 -0.36648,0.51307 -0.87955,1.09944 -0.43977,0.51307 -1.17273,1.17273 -0.36648,3.07842 0,6.15685 0.43977,3.07842 0.80625,6.23014 0.43978,3.07842 0.51307,6.15685 0.1466,3.07842 -0.73295,6.08355 -1.02615,1.7591 -2.56536,1.83239 -1.53921,0.14659 -2.78524,-1.46591 -0.51307,-1.46592 -0.80625,-2.71195 -0.21989,-1.31932 -0.0733,-2.85853 -0.0733,-1.24603 -0.0733,-2.93184 0,-1.7591 -0.0733,-3.59149 0,-1.90569 -0.0733,-3.59149 0,-1.7591 -0.1466,-3.00513 -0.21988,-2.63865 -0.29318,-4.69093 -0.0733,-2.12558 -0.0733,-4.10457 0,-1.97898 0.0733,-4.03126 0.0733,-2.12558 0.21989,-4.76423 z"
         style="font-style:normal;font-variant:normal;font-weight:normal;font-stretch:normal;font-family:Halogen;-inkscape-font-specification:Halogen;stroke-width:1.83239484"
         id="path4549" />
      <path
         d="m 488.56527,171.72244 q 3.29831,-2.49206 6.30344,-2.63865 3.00512,-0.21989 6.01025,1.09943 1.46592,0.58637 2.85854,1.46592 1.46591,0.87955 2.27217,2.19887 2.49205,4.03127 3.22501,7.40288 0.80626,3.29831 0.65966,6.59662 -0.0733,3.22502 -0.73295,6.74321 -0.65967,3.5182 -0.95285,7.91595 -0.29318,1.46591 -1.24603,2.19887 -0.95284,0.65966 -1.97898,0.51307 -1.02615,-0.0733 -1.8324,-0.87955 -0.80625,-0.87955 -0.80625,-2.41876 0,-0.36648 0,-0.80625 0.0733,-0.43978 0.14659,-0.80625 -0.87955,0.73295 -2.19888,1.6125 -1.24602,0.80626 -2.71194,1.53921 -1.39262,0.65967 -2.85854,1.09944 -1.46591,0.43978 -2.71194,0.36648 -3.4449,-0.36648 -5.57048,-2.19887 -2.05228,-1.90569 -2.71194,-4.39775 -0.65967,-2.56535 0.14659,-5.2773 0.87955,-2.78524 3.29831,-4.98411 1.7591,-1.61251 3.59149,-2.41876 1.90569,-0.87955 3.95797,-1.31933 2.05229,-0.43977 4.10457,-0.65966 2.12558,-0.21989 4.32445,-0.43977 0.0733,-1.02615 0.0733,-1.24603 0.0733,-0.29319 0,-0.36648 0,-0.14659 -0.1466,-0.29319 -0.0733,-0.21988 -0.29318,-1.09943 -0.21989,-0.73296 -0.58636,-1.39262 -0.29319,-0.73296 -0.87955,-1.31933 -0.0733,-0.0733 -0.73296,-0.65966 -0.58637,-0.65966 -1.61251,-1.31932 -0.95284,-0.65966 -2.27217,-1.09944 -1.31932,-0.43977 -2.71194,-0.21989 -1.53921,0.21989 -2.63865,1.31933 -1.02614,1.02614 -1.8324,2.19887 -0.80625,1.17273 -1.6125,2.12558 -0.73296,0.87955 -1.61251,0.80625 -1.31933,-0.0733 -1.7591,-1.02614 -0.36648,-0.95284 0,-2.27217 0.36648,-1.31932 1.39262,-2.78524 1.02614,-1.53921 2.63865,-2.85853 z m 13.26654,20.96259 q 0.14659,-0.87955 0.29318,-1.7591 0.14659,-0.87955 0.29318,-1.7591 -1.6858,0.1466 -3.3716,0.36648 -1.61251,0.1466 -3.29831,0.58637 -1.24603,0.36648 -2.49206,1.02614 -1.17273,0.58637 -2.19887,1.39262 -1.61251,1.24603 -1.8324,2.71195 -0.14659,1.46591 0.65966,2.49205 0.80626,0.95285 2.34547,1.17273 1.53921,0.21989 3.3716,-1.02614 0.73296,-0.51307 1.17274,-0.73295 0.51307,-0.29319 0.87955,-0.51307 0.36648,-0.29319 0.73295,-0.58637 0.43978,-0.36648 1.09944,-0.95285 0.14659,-0.0733 0.43978,-0.43977 0.36647,-0.36648 0.73295,-0.80625 0.36648,-0.43978 0.65967,-0.73296 0.36647,-0.36648 0.51307,-0.43978 z"
         style="font-style:normal;font-variant:normal;font-weight:normal;font-stretch:normal;font-family:Halogen;-inkscape-font-specification:Halogen;stroke-width:1.83239484"
         id="path4551" />
    </g>
    <g
       aria-label="Literatura"
       style="font-style:normal;font-variant:normal;font-weight:normal;font-stretch:normal;font-size:161.15930176px;line-height:1.25;font-family:'Great Vibes';-inkscape-font-specification:'Great Vibes';letter-spacing:0px;word-spacing:0px;fill:#000000;fill-opacity:1;stroke:none;stroke-width:4.02898264"
       id="text4641">
      <path
         d="m 703.16997,109.90998 q 0,14.02086 -9.18608,29.331 -9.02492,15.31013 -25.14085,26.75244 -15.95477,11.28115 -33.03766,14.18202 -9.83072,19.82259 -14.18202,27.7194 l -3.38434,5.47941 q 31.90954,7.89681 52.86025,24.01274 10.63651,8.21912 14.34318,20.14491 1.93391,6.12406 1.93391,10.47536 0,4.3513 -1.77275,7.25217 -1.6116,3.06202 -3.86783,4.19014 -2.25623,1.12811 -3.22318,1.12811 -0.96696,0 -0.96696,-0.80579 0,-0.8058 1.77275,-4.83478 1.93391,-3.86783 1.93391,-9.18608 0,-5.31826 -2.25623,-11.76463 -2.25623,-6.44637 -8.38028,-11.92579 -6.12405,-5.31826 -17.08289,-9.99188 -10.79767,-4.83478 -18.85563,-6.76869 -7.89681,-2.09507 -21.27303,-4.67362 -13.69854,19.17796 -28.5252,26.26897 -8.86376,4.3513 -15.79361,4.3513 -6.76869,0 -12.08695,-2.73971 -9.18608,-4.51246 -9.18608,-13.69854 0,-9.18608 12.08695,-16.11593 13.69854,-8.05796 37.06664,-8.05796 8.38028,0 15.14897,1.28927 7.25217,-11.28115 16.92173,-31.10374 -0.96696,0 -1.77275,0 -10.15304,0 -18.85564,-3.38435 -8.7026,-3.38434 -13.8597,-9.18608 -6.76869,-7.57449 -6.76869,-17.08289 0,-4.99593 2.41739,-10.79767 2.57855,-5.80173 11.11999,-11.76463 8.7026,-5.96289 21.91767,-9.02492 2.09507,-0.48348 3.5455,-0.48348 1.45043,0 1.77275,0.8058 0.32232,0.8058 -1.28927,1.45043 -1.6116,0.64464 -3.70667,0.96696 -6.92985,0.8058 -12.89274,4.67362 -10.3142,6.60753 -14.34318,20.30607 -0.96695,3.22319 -0.96695,6.28521 0,2.90087 1.12811,7.09101 1.12812,4.19014 4.83478,8.70261 3.70666,4.3513 9.99188,6.12405 6.44637,1.77275 11.11999,1.77275 4.83478,0 8.86376,-0.48348 L 644.99146,142.303 q 14.18202,-36.422 33.84345,-44.802283 5.1571,-2.095071 9.99188,-2.095071 4.99594,0 9.34724,3.223186 4.51246,3.062028 4.83478,7.574488 0.16116,1.93391 0.16116,3.70666 z m -6.76869,0.16116 q 0,-6.12405 -5.64058,-6.12405 -8.21912,0 -19.98375,14.34318 -9.18608,11.44231 -17.72752,27.7194 -8.38029,16.11593 -14.98782,29.81447 22.40114,-4.99594 40.28983,-24.49622 18.04984,-19.66143 18.04984,-41.25678 z m -89.28225,109.58833 q -7.89681,-1.77275 -16.27709,-1.77275 -8.38029,0 -17.24405,2.41738 -18.53332,4.83478 -21.75651,13.69855 -0.64463,1.61159 -0.64463,3.06202 0,4.19014 4.51246,6.76869 4.67362,2.73971 10.15303,2.73971 7.57449,0 16.43825,-4.19014 13.37622,-6.44637 24.81854,-22.72346 z"
         style="stroke-width:4.02898264"
         id="path4554" />
      <path
         d="m 694.93322,169.70008 q -2.25623,1.93392 -4.99594,1.93392 -2.73971,0 -4.3513,-1.93392 -1.6116,-1.93391 -1.28928,-4.67362 0.48348,-2.7397 2.73971,-4.67362 2.25623,-1.93391 4.99594,-1.93391 2.73971,0 4.3513,1.93391 1.77275,1.93392 1.28927,4.67362 -0.48347,2.73971 -2.7397,4.67362 z m -15.79361,59.14547 q 3.06202,0 6.44637,-3.06203 5.96289,-5.96289 15.14897,-24.33505 1.12812,-2.41739 2.25623,-1.45044 0.32232,0.32232 0.32232,1.12812 0,0.64463 -1.28927,3.5455 -1.28928,2.73971 -2.41739,4.99594 -0.96696,2.25623 -4.02899,7.41333 -2.90086,4.99594 -5.31825,7.73565 -6.60753,7.57448 -12.57043,7.57448 -5.80173,0 -8.38028,-3.5455 -2.57855,-3.54551 -2.57855,-7.89681 0,-4.3513 2.09507,-9.5084 l 10.3142,-26.26896 q 0.32231,-0.96696 0.32231,-2.57855 0,-1.6116 -1.93391,-4.19014 l 8.86376,-0.16116 q 3.70667,0 4.3513,1.45043 0.64464,1.28927 -0.96695,4.19014 l -12.89275,30.13679 q -2.7397,5.9629 -2.7397,10.15304 0,4.67362 4.99594,4.67362 z"
         style="stroke-width:4.02898264"
         id="path4556" />
      <path
         d="m 696.83942,219.49831 q 0,-13.37622 12.89275,-44.80229 h -8.38028 q -0.8058,0 -1.12812,-0.80579 -0.16116,-0.96696 0.16116,-1.77276 0.48348,-0.96695 1.28927,-0.96695 h 9.66956 q 5.80174,-12.73159 10.79768,-21.27303 4.99593,-8.54144 9.18608,-11.44231 4.19014,-3.06203 5.96289,-3.06203 1.93391,0 2.73971,0.32232 3.70666,1.77275 3.70666,7.41333 0,5.47942 -3.70666,13.37622 -3.70667,7.89681 -7.25217,14.6655 h 7.73565 q 0.80579,0 0.96695,0.96695 0.32232,0.8058 -0.16116,1.77276 -0.32232,0.80579 -1.12811,0.80579 h -9.34724 q -8.86376,14.98782 -21.43419,26.59129 l -3.70666,16.43825 q -0.48348,2.09507 -0.48348,4.19014 0,1.93391 1.12811,4.02898 1.12812,2.09507 3.54551,2.09507 2.73971,0 6.12405,-1.93391 7.73565,-5.80174 17.08289,-24.33506 0.64464,-1.45043 1.45043,-1.77275 0.96696,-0.32232 1.12812,0.48348 0.16116,0.64464 -0.48348,2.25623 -5.31826,11.11999 -8.38028,15.79361 -8.70261,14.02086 -18.53332,14.02086 -4.99594,0 -8.21913,-3.70666 -3.22319,-3.70667 -3.22319,-9.34724 z m 32.39302,-48.34779 q 10.63652,-19.0168 10.63652,-26.43013 0,-3.22318 -1.12812,-3.22318 -1.77275,0 -5.47941,5.15709 -3.54551,5.1571 -12.08695,24.49622 z m -2.09507,3.5455 h -7.57448 q -1.93392,4.51246 -8.70261,21.43419 8.70261,-9.02492 16.27709,-21.43419 z"
         style="stroke-width:4.02898264"
         id="path4558" />
      <path
         d="m 740.06537,207.57252 q -2.25623,5.47942 -2.25623,12.24811 0,4.51246 1.93392,7.25217 2.09507,2.57854 5.80173,2.57854 14.6655,0 26.59128,-27.55824 1.12812,-2.57855 2.73971,-2.25623 0.64464,0.16116 0.64464,0.8058 0,0.64464 -3.70666,8.54144 -3.54551,7.73565 -7.25217,12.57043 -8.21913,11.28115 -20.30607,11.28115 -6.44638,0 -10.95884,-4.19014 -4.51246,-4.19014 -4.51246,-11.44231 0,-7.25217 3.38435,-15.31014 3.5455,-8.21912 9.5084,-15.14897 5.96289,-7.09101 13.69854,-10.3142 3.70666,-1.61159 7.09101,-1.61159 3.38434,0 6.28521,1.93391 2.73971,2.25623 2.73971,4.99594 0,9.66956 -11.60347,18.53332 -3.54551,2.73971 -9.99188,4.99594 -6.44637,2.09507 -9.83072,2.09507 z m 27.07477,-25.78549 q 0,-3.22318 -2.57855,-3.22318 -4.51246,0 -13.69854,11.11999 -5.47942,6.76869 -9.66956,15.14897 2.73971,0 7.8968,-1.93391 5.31826,-1.93391 9.18608,-5.1571 8.86377,-7.57448 8.86377,-15.95477 z"
         style="stroke-width:4.02898264"
         id="path4560" />
      <path
         d="m 794.23,167.76617 q 0,7.25217 -9.18608,13.69854 3.22319,0.16116 8.54145,0.16116 5.47941,0 13.69854,-0.80579 0.32232,0.48347 0.32232,2.57854 0,2.09508 -1.93392,6.28522 -1.93391,4.02898 -3.5455,7.09101 -1.45043,2.90086 -2.90087,5.64057 -1.28927,2.57855 -3.06202,6.44637 -1.6116,3.86783 -2.73971,7.09101 -4.02898,12.24811 1.28927,12.24811 6.76869,0 19.98376,-26.9136 1.12811,-2.09507 1.77275,-1.6116 0.80579,0.48348 0.80579,1.28928 0,0.64464 -2.09507,4.99594 -2.09507,4.19014 -4.51246,8.7026 -2.41739,4.51246 -7.57448,10.47535 -6.12406,7.41333 -11.76463,7.41333 -6.28522,0 -8.70261,-7.57449 -0.48347,-1.45043 -0.48347,-4.3513 0,-2.90086 1.77275,-7.73564 1.93391,-4.83478 5.96289,-11.76463 4.02899,-6.92985 4.51246,-8.05797 0.48348,-1.28927 0.48348,-2.41739 0,-4.99594 -12.89274,-5.31825 l -1.93391,5.15709 q -10.15304,26.59129 -19.50028,35.61621 -1.61159,1.45043 -1.61159,-0.96696 0,-0.48347 0.32232,-1.12811 9.02492,-11.92579 15.63245,-28.20288 6.60753,-16.27709 9.18608,-30.94259 0.96695,-4.99593 4.51246,-4.99593 3.5455,0 5.1571,4.51246 0.48347,1.45043 0.48347,3.38434 z"
         style="stroke-width:4.02898264"
         id="path4562" />
      <path
         d="m 863.49073,188.71688 q -2.90086,2.90087 -8.21912,13.21506 -5.31826,10.15304 -6.44637,15.31014 -0.96696,4.99594 -0.96696,8.21912 0,3.06203 2.41739,3.06203 3.06203,0 7.57449,-5.64058 6.60753,-8.21912 13.0539,-21.43418 0.64464,-1.45044 1.45043,-1.6116 1.28928,-0.48347 1.28928,0.96696 0,0.8058 -0.48348,1.93391 -14.82665,29.97563 -24.97969,29.97563 -4.67362,0 -7.57449,-4.51246 -1.45043,-2.41739 -1.45043,-6.44637 0,-4.02898 1.61159,-9.83072 -12.89274,20.78955 -22.23998,20.78955 -2.57855,0 -4.67362,-1.61159 -4.83478,-3.38435 -4.83478,-11.60347 0,-15.79361 13.69854,-32.0707 7.73565,-9.02492 19.0168,-11.76463 3.06202,-0.8058 5.80173,-0.8058 7.41333,0 12.57043,5.1571 1.61159,1.77275 0.96695,3.38434 -0.64463,1.6116 -2.7397,1.28928 -1.77276,-5.80174 -7.73565,-5.80174 -6.92985,0 -17.08289,10.95884 -5.80173,6.44637 -10.79767,15.14897 -6.28521,10.47536 -6.28521,16.76057 0,6.28521 4.02898,6.28521 9.66956,0 25.30201,-29.65331 3.06203,-5.96289 5.1571,-8.05797 2.09507,-2.25623 5.31825,-2.25623 0.64464,0 3.22319,0.48348 2.73971,0.48348 4.02898,0.16116 z"
         style="stroke-width:4.02898264"
         id="path4564" />
      <path
         d="m 866.81213,219.49831 q 0,-13.37622 12.89274,-44.80229 h -8.38028 q -0.8058,0 -1.12812,-0.80579 -0.16116,-0.96696 0.16116,-1.77276 0.48348,-0.96695 1.28928,-0.96695 h 9.66955 q 5.80174,-12.73159 10.79768,-21.27303 4.99594,-8.54144 9.18608,-11.44231 4.19014,-3.06203 5.96289,-3.06203 1.93391,0 2.73971,0.32232 3.70666,1.77275 3.70666,7.41333 0,5.47942 -3.70666,13.37622 -3.70666,7.89681 -7.25217,14.6655 h 7.73565 q 0.80579,0 0.96695,0.96695 0.32232,0.8058 -0.16116,1.77276 -0.32231,0.80579 -1.12811,0.80579 h -9.34724 q -8.86376,14.98782 -21.43419,26.59129 l -3.70666,16.43825 q -0.48348,2.09507 -0.48348,4.19014 0,1.93391 1.12812,4.02898 1.12811,2.09507 3.5455,2.09507 2.73971,0 6.12405,-1.93391 7.73565,-5.80174 17.08289,-24.33506 0.64464,-1.45043 1.45043,-1.77275 0.96696,-0.32232 1.12812,0.48348 0.16116,0.64464 -0.48348,2.25623 -5.31826,11.11999 -8.38028,15.79361 -8.70261,14.02086 -18.53332,14.02086 -4.99594,0 -8.21913,-3.70666 -3.22318,-3.70667 -3.22318,-9.34724 z m 32.39302,-48.34779 q 10.63651,-19.0168 10.63651,-26.43013 0,-3.22318 -1.12811,-3.22318 -1.77276,0 -5.47942,5.15709 -3.54551,5.1571 -12.08695,24.49622 z m -2.09507,3.5455 h -7.57449 q -1.93391,4.51246 -8.7026,21.43419 8.7026,-9.02492 16.27709,-21.43419 z"
         style="stroke-width:4.02898264"
         id="path4566" />
      <path
         d="m 897.30649,223.04381 q 0,-6.92985 5.9629,-16.76056 -2.57855,0 -1.45044,-2.57855 l 2.90087,-5.64058 q 5.47942,-10.47535 9.02492,-17.72752 1.61159,-3.38435 6.28521,-3.38435 h 9.83072 q -5.80173,4.19014 -11.76463,16.27709 -5.80173,11.92579 -9.02492,18.85564 -3.22319,6.76869 -3.22319,10.3142 0,3.5455 1.12812,4.99593 1.28927,1.45044 3.38434,1.45044 3.06203,0 8.54145,-6.44637 8.54144,-9.99188 24.01273,-42.06258 1.77276,-3.38435 6.28522,-3.38435 h 8.7026 q -3.54551,2.73971 -5.64058,5.64058 -1.93391,2.90087 -5.47941,10.31419 -9.66956,19.33912 -10.79768,25.62433 -0.48347,2.25623 -0.48347,4.19014 0,5.1571 3.5455,5.47942 8.7026,0 21.43419,-26.9136 0.96695,-2.25623 1.93391,-1.77276 0.96695,0.48348 0.96695,1.28928 0,0.8058 -1.45043,3.70666 -1.45043,2.90087 -2.90087,5.64058 -1.28927,2.73971 -4.19014,7.57449 -2.73971,4.67362 -5.1571,7.41332 -6.28521,7.09101 -12.40926,7.09101 -5.9629,0 -8.21913,-5.31825 -0.96695,-2.41739 -0.96695,-6.12406 0,-3.70666 1.61159,-9.18608 -11.76463,20.62839 -21.75651,20.62839 -8.7026,0 -10.15303,-7.25217 -0.48348,-0.80579 -0.48348,-1.93391 z"
         style="stroke-width:4.02898264"
         id="path4568" />
      <path
         d="m 982.14428,167.76617 q 0,7.25217 -9.18608,13.69854 3.22319,0.16116 8.54144,0.16116 5.47942,0 13.69854,-0.80579 0.32232,0.48347 0.32232,2.57854 0,2.09508 -1.93391,6.28522 -1.93391,4.02898 -3.5455,7.09101 -1.45044,2.90086 -2.90087,5.64057 -1.28928,2.57855 -3.06203,6.44637 -1.61159,3.86783 -2.73971,7.09101 -4.02898,12.24811 1.28928,12.24811 6.76869,0 19.98374,-26.9136 1.1281,-2.09507 1.7728,-1.6116 0.8058,0.48348 0.8058,1.28928 0,0.64464 -2.0951,4.99594 -2.0951,4.19014 -4.51247,8.7026 -2.41739,4.51246 -7.57449,10.47535 -6.12405,7.41333 -11.76463,7.41333 -6.28521,0 -8.7026,-7.57449 -0.48348,-1.45043 -0.48348,-4.3513 0,-2.90086 1.77276,-7.73564 1.93391,-4.83478 5.96289,-11.76463 4.02898,-6.92985 4.51246,-8.05797 0.48348,-1.28927 0.48348,-2.41739 0,-4.99594 -12.89275,-5.31825 l -1.93391,5.15709 q -10.15303,26.59129 -19.50027,35.61621 -1.6116,1.45043 -1.6116,-0.96696 0,-0.48347 0.32232,-1.12811 9.02492,-11.92579 15.63245,-28.20288 6.60754,-16.27709 9.18608,-30.94259 0.96696,-4.99593 4.51247,-4.99593 3.5455,0 5.15709,4.51246 0.48348,1.45043 0.48348,3.38434 z"
         style="stroke-width:4.02898264"
         id="path4570" />
      <path
         d="m 1051.405,188.71688 q -2.9009,2.90087 -8.2191,13.21506 -5.3183,10.15304 -6.4464,15.31014 -0.9669,4.99594 -0.9669,8.21912 0,3.06203 2.4173,3.06203 3.0621,0 7.5745,-5.64058 6.6076,-8.21912 13.0539,-21.43418 0.6447,-1.45044 1.4505,-1.6116 1.2892,-0.48347 1.2892,0.96696 0,0.8058 -0.4834,1.93391 -14.8267,29.97563 -24.9797,29.97563 -4.6736,0 -7.5745,-4.51246 -1.4504,-2.41739 -1.4504,-6.44637 0,-4.02898 1.6115,-9.83072 -12.8927,20.78955 -22.2399,20.78955 -2.5786,0 -4.6737,-1.61159 -4.83473,-3.38435 -4.83473,-11.60347 0,-15.79361 13.69853,-32.0707 7.7357,-9.02492 19.0168,-11.76463 3.062,-0.8058 5.8017,-0.8058 7.4134,0 12.5705,5.1571 1.6116,1.77275 0.9669,3.38434 -0.6446,1.6116 -2.7397,1.28928 -1.7727,-5.80174 -7.7356,-5.80174 -6.9299,0 -17.0829,10.95884 -5.8018,6.44637 -10.7977,15.14897 -6.2852,10.47536 -6.2852,16.76057 0,6.28521 4.029,6.28521 9.6695,0 25.302,-29.65331 3.062,-5.96289 5.1571,-8.05797 2.0951,-2.25623 5.3182,-2.25623 0.6447,0 3.2232,0.48348 2.7397,0.48348 4.029,0.16116 z"
         style="stroke-width:4.02898264"
         id="path4572" />
    </g>
  </g>
</svg>
