<?xml version="1.0" encoding="UTF-8" standalone="no"?>
<!-- Created with Inkscape (http://www.inkscape.org/) -->

<svg
   xmlns:dc="http://purl.org/dc/elements/1.1/"
   xmlns:cc="http://creativecommons.org/ns#"
   xmlns:rdf="http://www.w3.org/1999/02/22-rdf-syntax-ns#"
   xmlns:svg="http://www.w3.org/2000/svg"
   xmlns="http://www.w3.org/2000/svg"
   xmlns:sodipodi="http://sodipodi.sourceforge.net/DTD/sodipodi-0.dtd"
   xmlns:inkscape="http://www.inkscape.org/namespaces/inkscape"
   width="70"
   height="20"
   viewBox="0 0 18.520833 5.2916668"
   version="1.1"
   id="svg5803"
   inkscape:version="0.92.4 (5da689c313, 2019-01-14)"
   sodipodi:docname="twitter.svg">
  <defs
     id="defs5797" />
  <sodipodi:namedview
     id="base"
     pagecolor="#ffffff"
     bordercolor="#666666"
     borderopacity="1.0"
     inkscape:pageopacity="0.0"
     inkscape:pageshadow="2"
     inkscape:zoom="31.678384"
     inkscape:cx="56.029671"
     inkscape:cy="14.19242"
     inkscape:document-units="mm"
     inkscape:current-layer="layer1"
     showgrid="false"
     units="px"
     inkscape:window-width="1920"
     inkscape:window-height="1017"
     inkscape:window-x="-8"
     inkscape:window-y="-8"
     inkscape:window-maximized="1" />
  <metadata
     id="metadata5800">
    <rdf:RDF>
      <cc:Work
         rdf:about="">
        <dc:format>image/svg+xml</dc:format>
        <dc:type
           rdf:resource="http://purl.org/dc/dcmitype/StillImage" />
        <dc:title />
      </cc:Work>
    </rdf:RDF>
  </metadata>
  <g
     inkscape:label="Layer 1"
     inkscape:groupmode="layer"
     id="layer1"
     transform="translate(0,-291.70832)">
    <rect
       style="fill:#1b95e0;fill-opacity:1;stroke:none;stroke-width:1.33462739;stroke-miterlimit:4;stroke-dasharray:none;stroke-opacity:1"
       id="rect5134"
       width="18.520834"
       height="5.291636"
       x="0"
       y="291.70834"
       ry="0.39911389" />
    <text
       xml:space="preserve"
       style="font-style:normal;font-weight:normal;font-size:14.47484207px;line-height:1.25;font-family:sans-serif;letter-spacing:0px;word-spacing:0px;fill:#ffffff;fill-opacity:1;stroke:none;stroke-width:0.36187103;"
       x="5.782064"
       y="302.42389"
       id="text5224"
       transform="scale(1.0239526,0.97660771)"><tspan
         sodipodi:role="line"
         id="tspan5222"
         x="5.782064"
         y="302.42389"
         style="font-style:normal;font-variant:normal;font-weight:bold;font-stretch:normal;font-size:2.89496827px;font-family:Arial;fill:#ffffff;fill-opacity:1;stroke-width:0.36187103;">Tweetar</tspan></text>
    <path
       inkscape:connector-curvature="0"
       style="fill:#ffffff;stroke-width:0.20250805;fill-opacity:1"
       d="m 5.08129,293.30595 c -0.118193,0.0529 -0.2454622,0.0887 -0.3787817,0.10471 0.1361431,-0.0823 0.2408227,-0.21247 0.2900359,-0.36781 -0.1274703,0.0762 -0.268657,0.13155 -0.4187176,0.16123 -0.1202093,-0.12931 -0.2916497,-0.21003 -0.4814443,-0.21003 -0.3642596,0 -0.6595403,0.29767 -0.6595403,0.66487 0,0.052 0.00587,0.10289 0.017145,0.15148 -0.5482057,-0.0274 -1.0342893,-0.29217 -1.3596223,-0.69435 -0.056676,0.0982 -0.089149,0.21227 -0.089149,0.33406 0,0.23057 0.1163777,0.4341 0.2934654,0.55345 -0.1083099,-0.004 -0.2099638,-0.0333 -0.2989111,-0.0832 0,0.003 0,0.005 0,0.008 0,0.32206 0.2273096,0.59086 0.5290444,0.65185 -0.055265,0.0153 -0.1135539,0.0234 -0.1736588,0.0234 -0.042558,0 -0.083905,-0.005 -0.1240421,-0.012 0.083905,0.26411 0.3275517,0.45646 0.6161764,0.46175 -0.2256961,0.17832 -0.5100851,0.28466 -0.8190809,0.28466 -0.053247,0 -0.1056879,-0.003 -0.1573217,-0.009 0.2918518,0.18868 0.6385644,0.29868 1.011094,0.29868 1.2131919,0 1.8765651,-1.01317 1.8765651,-1.89174 0,-0.0289 -6.053e-4,-0.0576 -0.00182,-0.086 0.1282777,-0.0935 0.2402175,-0.21064 0.3285601,-0.34403 z"
       id="path1425" />
  </g>
</svg>
